<?xml version="1.0" encoding="UTF-8"?>
<svg id="Layer_1" data-name="Layer 1" xmlns="http://www.w3.org/2000/svg" viewBox="0 0 1067.04 1204.8">
  <defs>
    <style>
      .cls-1 {
        font-size: 62.86px;
      }

      .cls-1, .cls-2, .cls-3, .cls-4, .cls-5 {
        fill: #fff;
      }

      .cls-1, .cls-3, .cls-4, .cls-5 {
        font-family: ReadexPro-Medium, 'Readex Pro';
        font-weight: 500;
      }

      .cls-3 {
        font-size: 88.32px;
      }

      .cls-4 {
        font-size: 77.78px;
      }

      .cls-5 {
        font-size: 31.96px;
      }
    </style>
  </defs>
  <g>
    <path class="cls-2" d="M749.15,336.83v185.83s-103.36-7.13-196.53,59.57v-132.38s22.91,28,33.6,54.48l23.17-23.17s-40.99-68.48-52.19-74.08c0,0,15.27-17.82,42.77-31.57,0,0,28.51,24.95,45.82,68.73l23.93-21.89s-22.91-45.82-39.2-62.11c0,0,45.32-23.42,118.63-23.42Z"/>
    <path class="cls-2" d="M322.49,336.83v185.83s103.36-7.13,196.53,59.57v-132.38s-22.91,28-33.6,54.48l-23.17-23.17s40.99-68.48,52.19-74.08c0,0-15.27-17.82-42.77-31.57,0,0-28.51,24.95-45.82,68.73l-23.93-21.89s22.91-45.82,39.2-62.11c0,0-45.32-23.42-118.63-23.42Z"/>
    <path class="cls-2" d="M606.59,336.83s-16.29-16.8-39.2-34.11c0,0,40.22-24.44,121.17-24.44l-13.75-32.08s-82.48,2.55-137.47,37.17c0,0-73.82-37.17-140.01-37.17l-14.76,29.02s87.06,6.62,119.65,28l-37.68,33.6s-68.22-38.19-142.05-32.08v-113.67h426.66v112.14s-48.37-6.11-142.56,33.6Z"/>
    <polygon class="cls-2" points="535.82 321.05 575.53 352.36 536.46 383.29 494.58 352.17 535.82 321.05"/>
  </g>
  <g>
    <text class="cls-1" transform="translate(202.53 848.5)"><tspan x="0" y="0">للتطوير المهني التعليمي</tspan></text>
    <text class="cls-4" transform="translate(199.35 958.65)"><tspan x="0" y="0">National Institute</tspan></text>
    <text class="cls-5" transform="translate(206.63 1008.04)"><tspan x="0" y="0">For Educational Professional Development</tspan></text>
    <text class="cls-3" transform="translate(199.3 748.19)"><tspan x="0" y="0">الــمــعــهــد الــوطـــنــي</tspan></text>
  </g>
</svg>